<?xml version="1.0" standalone="no"?>
<!DOCTYPE svg PUBLIC "-//W3C//DTD SVG 20010904//EN"
 "http://www.w3.org/TR/2001/REC-SVG-20010904/DTD/svg10.dtd">
<svg version="1.0" xmlns="http://www.w3.org/2000/svg"
 width="570.000000pt" height="570.000000pt" viewBox="0 0 570.000000 570.000000"
 preserveAspectRatio="xMidYMid meet">
<metadata>
Created by potrace 1.14, written by Peter Selinger 2001-2017
</metadata>
<g transform="translate(0.000000,570.000000) scale(0.100000,-0.100000)"
fill="#000000" stroke="none">
<path d="M222 4164 l3 -1535 55 -29 c30 -15 123 -61 205 -101 83 -41 152 -77
153 -81 2 -5 9 -8 14 -8 6 0 109 -49 228 -109 l216 -109 -1 1090 c0 599 3
1092 6 1094 3 2 398 -193 877 -432 l872 -436 862 431 c475 236 869 432 877
433 11 3 14 -33 14 -205 0 -114 3 -209 6 -211 3 -2 200 94 436 213 l430 218 2
656 2 656 -97 -48 c-132 -65 -643 -321 -662 -332 -58 -33 -1862 -929 -1870
-929 -6 0 -600 295 -1320 655 l-1310 655 2 -1536z"/>
<path d="M4635 3526 c-451 -226 -821 -414 -823 -418 -2 -5 -9 -8 -15 -8 -7 0
-221 -105 -477 -233 l-465 -234 -3 -436 c-1 -241 1 -437 5 -437 6 0 193 93
303 151 25 12 47 23 50 24 12 1 105 50 108 58 2 4 9 7 16 7 18 0 66 24 66 33
0 4 5 7 11 7 10 0 172 78 202 97 7 4 14 8 17 8 14 2 305 151 308 157 2 5 8 8
13 8 14 0 443 214 447 223 2 4 8 7 14 7 13 0 145 65 164 81 8 6 17 9 21 6 4
-5 8 -775 4 -858 -1 -11 -274 -153 -876 -454 l-875 -438 -1308 653 c-719 359
-1310 655 -1314 657 -5 2 -8 -193 -8 -434 l0 -438 308 -155 c169 -85 314 -157
322 -160 8 -3 44 -21 80 -40 36 -19 72 -37 80 -40 8 -3 76 -37 150 -75 74 -38
142 -72 150 -75 8 -3 121 -59 250 -125 129 -66 242 -122 250 -125 8 -3 85 -41
170 -85 85 -43 157 -79 160 -80 3 -1 39 -19 80 -40 41 -21 77 -39 80 -40 3 -1
120 -59 260 -130 140 -71 263 -133 273 -137 12 -5 33 0 60 14 23 12 45 21 49
20 3 -1 12 5 18 13 7 8 20 15 30 15 10 0 23 6 29 14 7 8 24 17 39 21 15 4 32
11 39 17 17 13 156 82 165 80 3 -1 12 5 18 13 7 8 20 15 30 15 10 0 23 7 30
15 7 8 18 15 24 15 6 0 25 7 41 16 78 42 321 161 329 162 5 0 12 4 15 9 7 9
138 73 147 72 4 0 10 3 13 8 5 7 118 66 131 68 3 1 25 12 50 25 67 35 904 454
910 455 3 0 25 12 50 25 92 48 240 120 242 118 2 -2 17 6 33 17 17 12 58 34
92 49 l61 29 0 1313 c0 996 -2 1314 -11 1313 -7 -1 -381 -187 -832 -413z"/>
</g>
</svg>
